<?xml version="1.0" encoding="UTF-8" standalone="no"?>
<!-- Generator: Adobe Illustrator 19.0.0, SVG Export Plug-In . SVG Version: 6.00 Build 0)  -->

<svg
   xmlns:dc="http://purl.org/dc/elements/1.1/"
   xmlns:cc="http://creativecommons.org/ns#"
   xmlns:rdf="http://www.w3.org/1999/02/22-rdf-syntax-ns#"
   xmlns:svg="http://www.w3.org/2000/svg"
   xmlns="http://www.w3.org/2000/svg"
   xmlns:sodipodi="http://sodipodi.sourceforge.net/DTD/sodipodi-0.dtd"
   xmlns:inkscape="http://www.inkscape.org/namespaces/inkscape"
   version="1.1"
   id="Capa_1"
   x="0px"
   y="0px"
   viewBox="0 0 452 253.2"
   xml:space="preserve"
   inkscape:version="0.91 r13725"
   sodipodi:docname="bus.svg"
   inkscape:export-filename="/home/connor/Downloads/work/PHX/src/images/bus.png"
   inkscape:export-xdpi="22.73"
   inkscape:export-ydpi="22.73"
   width="452"
   height="253.2"><metadata
     id="metadata4412"><rdf:RDF><cc:Work
         rdf:about=""><dc:format>image/svg+xml</dc:format><dc:type
           rdf:resource="http://purl.org/dc/dcmitype/StillImage" /><dc:title></dc:title></cc:Work></rdf:RDF></metadata><defs
     id="defs4410" /><sodipodi:namedview
     pagecolor="#ffffff"
     bordercolor="#666666"
     borderopacity="1"
     objecttolerance="10"
     gridtolerance="10"
     guidetolerance="10"
     inkscape:pageopacity="0"
     inkscape:pageshadow="2"
     inkscape:window-width="2400"
     inkscape:window-height="1532"
     id="namedview4408"
     showgrid="false"
     inkscape:zoom="1.3705752"
     inkscape:cx="207.02986"
     inkscape:cy="126.6"
     inkscape:window-x="0"
     inkscape:window-y="68"
     inkscape:window-maximized="1"
     inkscape:current-layer="Capa_1"
     fit-margin-top="0"
     fit-margin-left="0"
     fit-margin-right="0"
     fit-margin-bottom="0" /><path
     style="fill:#5fa390;fill-opacity:1"
     d="m 427.2,32.8 -63.6,0 c -2.8,0 -13.6,0 -28.4,0 -41.6,0 -114.4,0 -121.6,0 l -188.8,0 c -10,0 -18.4,8.4 -18.4,18.4 l 0,140.8 c 0,10 8.4,18.4 18.4,18.4 l 14.8,0 295.2,0 10,0 36,0 35.2,0 10.8,0 c 10,0 18.4,-8.4 18.4,-18.4 l 0,-140.8 c 0.4,-10 -8,-18.4 -18,-18.4 z"
     id="path4338"
     inkscape:connector-curvature="0" /><path
     style="fill:#add0c6;fill-opacity:1"
     d="m 37.2,192.4 0,-141.2 c 0,-10 8.4,-18.4 18.4,-18.4 l -30.4,0 c -10,0 -18.4,8.4 -18.4,18.4 l 0,140.8 c 0,10 8.4,18.4 18.4,18.4 l 14.8,0 15.6,0 c -10,0.4 -18.4,-8 -18.4,-18 z"
     id="path4340"
     inkscape:connector-curvature="0" /><path
     style="fill:#add0d0;fill-opacity:1"
     d="m 6.4,121.6 374.4,0 c 0,0 51.6,0.4 59.6,82.4 0,0 4.4,-49.6 4.4,-88.8 0,-39.2 0,-73.6 0,-73.6 0,0 -10.8,-10 -28.8,-10 -18,0 -393.6,0 -393.6,0 0,0 -16,3.6 -16,25.2 0,21.6 0,64.8 0,64.8 z"
     id="path4342"
     inkscape:connector-curvature="0" /><g
     id="g4344"
     transform="translate(0,-99.4)"><path
       style="fill:#e6f7ff;fill-opacity:1"
       d="m 161.2,131.4 -46.4,89.6 10,0 46.4,-89.6 c -3.2,0 -6.8,0 -10,0 z"
       id="path4346"
       inkscape:connector-curvature="0" /><path
       style="fill:#e6f7ff;fill-opacity:1"
       d="m 185.2,131.4 -46.8,89.6 10,0 46.4,-89.6 c -3.2,0 -6.4,0 -9.6,0 z"
       id="path4348"
       inkscape:connector-curvature="0" /><path
       style="fill:#e6f7ff;fill-opacity:1"
       d="M 258.4,131.4 212,221 l 10,0 46.4,-89.6 c -3.6,0 -6.8,0 -10,0 z"
       id="path4350"
       inkscape:connector-curvature="0" /><path
       style="fill:#e6f7ff;fill-opacity:1"
       d="m 353.6,131.4 -46.4,89.6 10,0 46.4,-89.6 c -3.2,0 -6.4,0 -10,0 z"
       id="path4352"
       inkscape:connector-curvature="0" /><path
       style="fill:#e6f7ff;fill-opacity:1"
       d="m 37.2,150.6 c 0,-10 8.4,-18.4 18.4,-18.4 l -30.4,0 c -2.8,0 -5.2,0.8 -7.6,1.6 -4.4,3.2 -10.4,9.6 -10.4,22.4 0,21.2 -0.4,64.8 -0.4,64.8 l 30.4,0 0,-70.4 z"
       id="path4354"
       inkscape:connector-curvature="0" /></g><path
     style="fill:#424953"
     d="m 427.2,26.8 -63.6,0 -28.4,0 -9.2,0 C 326,26.4 326,26 326,26 326,11.6 314.4,0 300,0 l -98.8,0 c -14.4,0 -26,11.6 -26,26 0,0.4 0,0.8 0,0.8 l -150.4,0 C 11.2,26.8 0,38 0,51.6 l 0,140.8 c 0,13.6 11.2,24.8 24.8,24.8 l 9.2,0 c 2.8,20.4 20.4,36 41.2,36 14.8,0 28,-8 35.6,-19.6 7.2,12 20.4,19.6 35.6,19.6 21.2,0 38.4,-15.6 41.2,-36 l 147.6,0 5.2,0 c 4,18.8 20.8,32.8 40.8,32.8 20,0 36.8,-14 40.8,-32.8 l 5.2,0 c 13.6,0 24.8,-11.2 24.8,-24.8 L 452,51.2 C 451.6,37.6 440.8,26.8 427.2,26.8 Z m 12,24.4 0,121.2 C 435.2,155.2 428.4,141.6 418,131.6 406.8,120.8 394.8,117.2 387.6,116 l 0,-76.8 39.6,0 c 6.4,0 12,5.6 12,12 z m -75.6,-12 11.2,0 0,76 -51.6,0 0,-64 c 0,-6.8 5.6,-12 12,-12 l 28.4,0 z m -175.6,76.4 0,-76 62.4,0 0,76 -62.4,0 z m 74.8,-76.4 50.8,0 c -2,3.6 -3.2,7.6 -3.2,12 l 0,64 -47.6,0 0,-76 z m -61.6,-26.8 99.2,0 c 7.2,0 13.2,6 13.2,13.2 0,0.4 0,0.8 0,0.8 l -126,0 c 0,-0.4 0,-0.8 0,-0.8 0.4,-7.2 6.4,-13.2 13.6,-13.2 z m -176.4,26.8 150.4,0 0,76 -162.4,0 0,-64 c 0,-6.4 5.6,-12 12,-12 z m -12,153.2 0,-64 243.6,0 0,0 0,0 54,0 0,64 c 0,4.4 1.2,8.4 3.2,12 l -126.4,0 C 184,184.8 166.8,169.6 146,169.6 c -14.8,0 -28,8 -35.6,19.6 -7.2,-12 -20.4,-19.6 -35.6,-19.6 -20.8,0 -38,15.2 -41.2,34.8 l -9.2,0 c -6,0 -11.6,-5.6 -11.6,-12 z m 410,12 c -2,-21.2 -19.6,-38 -41.6,-38 -21.6,0 -39.6,16.8 -41.6,38 l -4.4,0 c -6.8,0 -12,-5.6 -12,-12 l 0,-64 58,0 c 0,0 14.8,-0.4 28,12.4 13.2,12.8 20.4,34.4 20.8,63.2 -0.8,0.4 -2,0.4 -2.8,0.4 l -4.4,0 z"
     id="path4356"
     inkscape:connector-curvature="0" /><path
     style="fill:#5fa390;fill-opacity:1"
     d="m 300.4,12.4 -99.2,0 c -7.2,0 -13.2,6 -13.2,13.2 0,0.4 0,0.8 0,0.8 l 126,0 c 0,-0.4 0,-0.8 0,-0.8 -0.4,-7.2 -6.4,-13.2 -13.6,-13.2 z"
     id="path4358"
     inkscape:connector-curvature="0" /><path
     style="fill:#add0c6;fill-opacity:1"
     d="m 218.4,12.4 -17.6,0 c -7.2,0 -13.2,6 -13.2,13.2 0,0.4 0,0.8 0,0.8 l 17.6,0 c 0,-0.4 0,-0.8 0,-0.8 0.4,-7.2 6,-13.2 13.2,-13.2 z"
     id="path4360"
     inkscape:connector-curvature="0" /><g
     id="g4362"
     transform="translate(0,-99.4)"><circle
       style="fill:#e6e9ee"
       cx="75.199997"
       cy="310.60001"
       r="18.4"
       id="circle4364" /><circle
       style="fill:#e6e9ee"
       cx="146"
       cy="310.60001"
       r="18.4"
       id="circle4366" /><circle
       style="fill:#e6e9ee"
       cx="381.20001"
       cy="307.39999"
       r="18.4"
       id="circle4368" /></g><g
     id="g4370"
     transform="translate(0,-99.4)"><path
       style="fill:#ffffff"
       d="m 66,310.6 c 0,-8.4 6,-15.6 14,-17.6 -1.6,-0.4 -2.8,-0.8 -4.4,-0.8 -10,0 -18.4,8.4 -18.4,18.4 0,10 8.4,18.4 18.4,18.4 1.6,0 3.2,-0.4 4.4,-0.8 -8,-2 -14,-8.8 -14,-17.6 z"
       id="path4372"
       inkscape:connector-curvature="0" /><path
       style="fill:#ffffff"
       d="m 136.8,310.6 c 0,-8.4 6,-15.6 14,-17.6 -1.6,-0.4 -2.8,-0.8 -4.4,-0.8 -10,0 -18.4,8.4 -18.4,18.4 0,10 8.4,18.4 18.4,18.4 1.6,0 3.2,-0.4 4.4,-0.8 -8,-2 -14,-8.8 -14,-17.6 z"
       id="path4374"
       inkscape:connector-curvature="0" /><path
       style="fill:#ffffff"
       d="m 371.6,307.4 c 0,-8.4 6,-15.6 14,-17.6 -1.6,-0.4 -2.8,-0.8 -4.4,-0.8 -10,0 -18.4,8.4 -18.4,18.4 0,10 8.4,18.4 18.4,18.4 1.6,0 3.2,-0.4 4.4,-0.8 -8,-2 -14,-9.2 -14,-17.6 z"
       id="path4376"
       inkscape:connector-curvature="0" /></g><g
     id="g4378"
     transform="translate(0,-99.4)" /><g
     id="g4380"
     transform="translate(0,-99.4)" /><g
     id="g4382"
     transform="translate(0,-99.4)" /><g
     id="g4384"
     transform="translate(0,-99.4)" /><g
     id="g4386"
     transform="translate(0,-99.4)" /><g
     id="g4388"
     transform="translate(0,-99.4)" /><g
     id="g4390"
     transform="translate(0,-99.4)" /><g
     id="g4392"
     transform="translate(0,-99.4)" /><g
     id="g4394"
     transform="translate(0,-99.4)" /><g
     id="g4396"
     transform="translate(0,-99.4)" /><g
     id="g4398"
     transform="translate(0,-99.4)" /><g
     id="g4400"
     transform="translate(0,-99.4)" /><g
     id="g4402"
     transform="translate(0,-99.4)" /><g
     id="g4404"
     transform="translate(0,-99.4)" /><g
     id="g4406"
     transform="translate(0,-99.4)" /></svg>