<?xml version="1.0" encoding="UTF-8" standalone="no"?>
<!-- Created with Inkscape (http://www.inkscape.org/) -->

<svg
   xmlns:dc="http://purl.org/dc/elements/1.1/"
   xmlns:cc="http://creativecommons.org/ns#"
   xmlns:rdf="http://www.w3.org/1999/02/22-rdf-syntax-ns#"
   xmlns:svg="http://www.w3.org/2000/svg"
   xmlns="http://www.w3.org/2000/svg"
   xmlns:sodipodi="http://sodipodi.sourceforge.net/DTD/sodipodi-0.dtd"
   xmlns:inkscape="http://www.inkscape.org/namespaces/inkscape"
   width="56.597404mm"
   height="91.765953mm"
   viewBox="0 0 56.597404 91.765953"
   version="1.1"
   id="svg6962"
   sodipodi:docname="bussvg.svg"
   inkscape:export-filename="/home/connor/Downloads/work/PHX/src/images/bus.png"
   inkscape:export-xdpi="96"
   inkscape:export-ydpi="96"
   inkscape:version="0.92.1 r15371">
  <defs
     id="defs6956">
    <clipPath
       id="clipPath1550"
       clipPathUnits="userSpaceOnUse">
      <path
         inkscape:connector-curvature="0"
         id="path1548"
         d="m 4700,8648.8 c 44.59,20.49 222.47,93.31 497.42,93.31 144.33,0 315.43,-20.07 508.03,-78.29 -9.99,1.84 -19.99,3.63 -29.87,5.33 -85.39,18.51 -263.79,50.58 -474.57,50.58 -149.89,0 -316.18,-16.22 -477.05,-65.06 -12.15,-2.93 -20.22,-5.02 -23.96,-5.87" />
    </clipPath>
  </defs>
  <sodipodi:namedview
     id="base"
     pagecolor="#ffffff"
     bordercolor="#666666"
     borderopacity="1.0"
     inkscape:pageopacity="0.0"
     inkscape:pageshadow="2"
     inkscape:zoom="2.8"
     inkscape:cx="132.73725"
     inkscape:cy="116.64123"
     inkscape:document-units="mm"
     inkscape:current-layer="layer1"
     showgrid="false"
     fit-margin-top="0"
     fit-margin-left="0"
     fit-margin-right="0"
     fit-margin-bottom="0"
     inkscape:window-width="1235"
     inkscape:window-height="1640"
     inkscape:window-x="1295"
     inkscape:window-y="30"
     inkscape:window-maximized="0" />
  <metadata
     id="metadata6959">
    <rdf:RDF>
      <cc:Work
         rdf:about="">
        <dc:format>image/svg+xml</dc:format>
        <dc:type
           rdf:resource="http://purl.org/dc/dcmitype/StillImage" />
        <dc:title></dc:title>
      </cc:Work>
    </rdf:RDF>
  </metadata>
  <g
     inkscape:label="Layer 1"
     inkscape:groupmode="layer"
     id="layer1"
     transform="translate(-80.558956,89.061542)">
    <path
       inkscape:connector-curvature="0"
       id="path1416"
       style="fill:#040606;fill-opacity:1;fill-rule:nonzero;stroke:none;stroke-width:0.03527778"
       d="m 90.982033,2.7044106 c -0.506236,0 -0.916517,-0.410281 -0.916517,-0.916869 v -2.71074303 c 0,-0.50623797 0.410281,-0.91651697 0.916517,-0.91651697 h 33.319857 c 0.50589,0 0.91652,0.410279 0.91652,0.91651697 V 1.7875416 c 0,0.506588 -0.41063,0.916869 -0.91652,0.916869 H 90.982033" />
    <path
       inkscape:connector-curvature="0"
       id="path1418"
       style="fill:#b3b3b3;fill-opacity:1;fill-rule:nonzero;stroke:none;stroke-width:0.03527778"
       d="m 128.04275,1.3709106 c 0.77188,-0.369358 1.4478,-0.88759003 1.95051,-1.58609003 0.43533,-0.60607 0.72108,-1.29539697 0.92392,-2.01082997 0.14041,-0.494597 0.25083,-0.998715 0.36689,-1.501072 V -17.173558 H 86.11123 v 13.4464766 c 0.115359,0.502357 0.225778,1.006475 0.366184,1.501072 0.202847,0.715433 0.488597,1.40475997 0.924277,2.01082997 0.502709,0.6985 1.178278,1.21673203 1.950509,1.58609003 1.033638,0.49389 2.140303,0.710848 3.269897,0.828675 h 32.150753 c 1.12924,-0.117827 2.23626,-0.334785 3.2699,-0.828675" />
    <path
       inkscape:connector-curvature="0"
       id="path1420"
       style="fill:#060707;fill-opacity:1;fill-rule:nonzero;stroke:none;stroke-width:0.03527778"
       d="m 130.27125,-77.799828 c -0.27376,-2.36714 -0.8756,-4.944181 -2.17276,-6.289323 -2.7753,-2.878314 -14.06419,-4.76003 -19.6536,-4.970991 v -0.0014 l -0.0138,7.05e-4 -0.0134,-7.05e-4 v 0.0014 c -5.58906,0.210961 -16.877945,2.092677 -19.653248,4.970991 -1.296811,1.345142 -1.899003,3.922183 -2.172758,6.289323 h 43.679536" />
    <path
       inkscape:connector-curvature="0"
       id="path1422"
       style="fill:#9fa2a1;fill-opacity:1;fill-rule:nonzero;stroke:none;stroke-width:0.03527778"
       d="m 130.53654,-77.534539 c -0.27411,-2.36714 -0.87595,-4.944534 -2.17241,-6.289323 -2.77601,-2.878314 -14.06454,-4.760736 -19.65395,-4.971344 v -0.0014 l -0.0134,0.0011 -0.0138,-0.0011 v 0.0014 c -5.58907,0.210608 -16.877602,2.09303 -19.653963,4.971344 -1.296458,1.344789 -1.899003,3.922183 -2.172405,6.289323 h 43.679898" />
    <path
       inkscape:connector-curvature="0"
       id="path1424"
       style="fill:#333236;fill-opacity:1;fill-rule:nonzero;stroke:none;stroke-width:0.03527778"
       d="m 130.53654,-77.534539 c -0.27411,-2.36714 -0.87595,-4.944534 -2.17241,-6.289323 -2.77601,-2.878314 -14.06454,-4.760736 -19.65395,-4.971344 v -0.0014 l -0.0134,0.0011 -0.0138,-0.0011 v 0.0014 c -5.58907,0.210608 -16.877602,2.09303 -19.653963,4.971344 -1.296458,1.344789 -1.899003,3.922183 -2.172405,6.289323 h 43.679898" />
    <path
       inkscape:connector-curvature="0"
       id="path1426"
       style="fill:#1a1b1b;fill-opacity:1;fill-rule:nonzero;stroke:none;stroke-width:0.03527778"
       d="m 130.60286,-76.218678 c -0.27341,-2.367492 -0.87525,-4.944534 -2.17206,-6.289676 -2.776,-2.877961 -14.06489,-4.760383 -19.65395,-4.971344 v -0.0011 l -0.0138,7.06e-4 -0.0134,-7.06e-4 v 0.0011 c -5.58906,0.210961 -16.877949,2.093383 -19.653605,4.971344 -1.296811,1.345142 -1.899003,3.922184 -2.172406,6.289676 h 43.679191" />
    <path
       inkscape:connector-curvature="0"
       id="path1428"
       style="fill:#b3b3b3;fill-opacity:1;fill-rule:nonzero;stroke:none;stroke-width:0.03527778"
       d="m 128.04275,0.32069157 c 0.77188,-0.364421 1.4478,-0.8763 1.95051,-1.56668497 0.43533,-0.599016 0.72108,-1.280231 0.92392,-1.986491 0.14041,-0.48895 0.25083,-0.987074 0.36689,-1.482725 V -38.693001 l 0.11359,-31.322433 c 0,0 0.4244,-8.724547 -2.43981,-11.667772 -1.40581,-1.445331 -4.93324,-2.64407 -8.8399,-3.515078 l -0.0219,-0.0049 c -0.12242,-0.02752 -0.24518,-0.05433 -0.36866,-0.08114 l -0.0177,-0.0039 c -0.3884,-0.08396 -0.77999,-0.164043 -1.17334,-0.241654 l -0.0191,-0.0032 c -0.11994,-0.02399 -0.24024,-0.04762 -0.36018,-0.0702 l -0.0504,-0.0095 c -0.11501,-0.02187 -0.23001,-0.04374 -0.34502,-0.06491 l -0.0416,-0.0078 c -0.26035,-0.04798 -0.5207,-0.09455 -0.78069,-0.1397 l -0.0138,-0.0021 c -0.11818,-0.02046 -0.23601,-0.04057 -0.3549,-0.06068 l -0.0871,-0.01482 c -0.0956,-0.01588 -0.19085,-0.03104 -0.2854,-0.04657 -0.0349,-0.0053 -0.0695,-0.01164 -0.10371,-0.01693 -0.0931,-0.01517 -0.18592,-0.02999 -0.27905,-0.04445 -0.0321,-0.0053 -0.0646,-0.01023 -0.0967,-0.01552 -0.11607,-0.01799 -0.23142,-0.03598 -0.34714,-0.05327 l -0.0212,-0.0035 c -0.11959,-0.01834 -0.23883,-0.03563 -0.35736,-0.05327 -0.0448,-0.0064 -0.0896,-0.0127 -0.13405,-0.01905 -0.0737,-0.01094 -0.14747,-0.02152 -0.2212,-0.0321 -0.0529,-0.0074 -0.10618,-0.01517 -0.1591,-0.02187 -0.0646,-0.0092 -0.12841,-0.01799 -0.19262,-0.02681 -0.0571,-0.0081 -0.1143,-0.01552 -0.17145,-0.02363 -0.0582,-0.0074 -0.11606,-0.01552 -0.17427,-0.02293 -0.0603,-0.0078 -0.1203,-0.01623 -0.18027,-0.02399 -0.049,-0.0063 -0.0977,-0.0127 -0.14675,-0.0187 -0.12912,-0.01623 -0.25788,-0.03246 -0.38559,-0.04833 -0.0392,-0.0046 -0.0783,-0.0095 -0.11712,-0.01411 -0.072,-0.0088 -0.14323,-0.01693 -0.21484,-0.02575 -0.0392,-0.0042 -0.078,-0.0095 -0.11677,-0.01341 -0.0734,-0.0092 -0.14641,-0.01693 -0.21908,-0.02505 -0.0335,-0.0039 -0.067,-0.0078 -0.10089,-0.01164 -0.0769,-0.0088 -0.15381,-0.01693 -0.23001,-0.02505 l -0.0603,-0.0067 c -0.27587,-0.02927 -0.54681,-0.05678 -0.81245,-0.08148 l -0.0194,-0.0021 c -0.9585,-0.09031 -1.84609,-0.150633 -2.62538,-0.179914 v -0.0011 l -0.0141,3.52e-4 -0.0141,-3.52e-4 v 0.0011 c -5.75771,0.215549 -17.387032,2.13713 -20.246649,5.075769 -2.86385,2.943225 -2.439811,11.667772 -2.439811,11.667772 l 0.1143,31.322433 v 33.9777916 c 0.115359,0.495651 0.225778,0.993775 0.366184,1.482725 0.202847,0.70626 0.488597,1.387475 0.924277,1.986491 0.502709,0.69038497 1.178278,1.20226397 1.950509,1.56668497 1.033638,0.488596 2.140303,0.70308603 3.269897,0.81950203 h 15.325373 8.6106 8.21478 c 1.12924,-0.116416 2.23626,-0.33090603 3.2699,-0.81950203" />
    <path
       inkscape:connector-curvature="0"
       id="path1430"
       style="fill:#16120f;fill-opacity:1;fill-rule:nonzero;stroke:none;stroke-width:0.03527778"
       d="m 128.95785,-81.683206 c -0.0413,-0.04233 -0.084,-0.08396 -0.12876,-0.125942 0.0448,0.04163 0.0875,0.08361 0.12876,0.125942 m -0.13617,-0.132998 c -2.6e-4,-3.44e-4 -2.6e-4,-3.44e-4 -7.9e-4,-7.14e-4 2.6e-4,3.44e-4 2.6e-4,7.14e-4 7.9e-4,7.14e-4" />
    <path
       inkscape:connector-curvature="0"
       id="path1432"
       style="fill:#666666;fill-opacity:1;fill-rule:nonzero;stroke:none;stroke-width:0.03527778"
       d="m 130.07334,-1.3595894 -2.42429,-0.69497 v -0.0882 c 0.52775,0.166865 0.90946,0.273757 0.90946,0.273757 0,0 0.005,2.64e-4 0.0141,2.64e-4 0.11959,0 0.95038,-0.02469 0.93839,-0.709435 V -57.570493 c 0,0 -0.0416,-1.164166 -1.10878,-1.164166 -0.21978,0 -0.47943,0 -0.75318,0 V -80.57372 c 0.20567,0.03351 0.40781,0.0575 0.58702,0.0575 0.3743,0 0.64911,-0.104775 0.64982,-0.450145 0,-0.03739 -0.003,-0.07726 -0.01,-0.120297 -0.0565,-0.369711 -0.26459,-0.763411 -0.5461,-1.129595 0.18132,0.130881 0.34537,0.263878 0.49106,0.399345 2.7e-4,3.44e-4 2.7e-4,3.44e-4 8e-4,7.14e-4 0.002,0.0025 0.005,0.0046 0.007,0.0071 0.0448,0.04198 0.0875,0.08361 0.12876,0.125942 v 0 c 0.40499,0.416278 0.74436,0.948267 1.02835,1.554692 -0.13406,-0.0088 -0.27023,-0.01447 -0.40111,-0.01447 -0.3182,0 -0.60395,0.03316 -0.74542,0.131586 -0.67486,0.471311 0,1.150055 0,1.150055 l 0.7747,0.348192 c -0.10301,0.605014 -0.10089,1.039636 0.12559,1.383242 2.7e-4,3.44e-4 2.7e-4,7.14e-4 7.9e-4,0.0011 8e-4,0.0011 0.001,0.0021 0.002,0.0032 2.7e-4,7.14e-4 0.001,0.0014 0.001,0.0018 8e-4,0.0011 0.001,0.0021 0.002,0.0028 0.001,0.0014 0.002,0.0032 0.003,0.0046 2.7e-4,7.14e-4 8e-4,0.0014 0.001,0.0021 0.001,7.14e-4 0.002,0.0021 0.002,0.0032 2.7e-4,7.14e-4 8e-4,0.0014 0.001,0.0018 8e-4,0.0014 0.002,0.0028 0.003,0.0042 2.7e-4,3.44e-4 2.7e-4,7.14e-4 8e-4,0.0011 0.001,0.0014 0.002,0.0032 0.003,0.0049 7.9e-4,3.44e-4 0.001,7.14e-4 0.001,0.0014 7.9e-4,0.0014 0.002,0.0025 0.003,0.0039 0,3.44e-4 2.6e-4,0.0011 7.9e-4,0.0014 0.001,0.0014 0.002,0.0032 0.004,0.0049 2.7e-4,3.44e-4 8e-4,7.14e-4 0.001,0.0011 0.001,0.0014 0.002,0.0028 0.003,0.0042 2.7e-4,3.44e-4 8e-4,7.15e-4 10e-4,0.0014 0.001,0.0018 0.002,0.0032 0.004,0.0049 0.004,0.0056 0.009,0.01129 0.0148,0.01729 0.001,0.0014 0.003,0.0028 0.004,0.0042 0.002,0.0018 0.004,0.0032 0.005,0.0049 2.7e-4,3.44e-4 0.001,0.0011 0.001,0.0014 0.0229,0.02082 0.054,0.04269 0.0931,0.06632 2.7e-4,3.44e-4 8e-4,3.44e-4 0.001,7.15e-4 0.013,0.0078 0.0268,0.01552 0.0413,0.02363 0.008,0.0042 0.0173,0.0092 0.0265,0.01376 0,0 2.7e-4,3.44e-4 2.7e-4,3.44e-4 0.21519,0.112537 0.58631,0.249414 1.0481,0.395464 0.34219,2.029178 0.40569,4.089047 0.40569,5.338586 0,0.738011 -0.0222,1.1938 -0.0222,1.1938 l -0.11359,31.322434 v 33.9777906 c -0.11607,0.495652 -0.22649,0.993775 -0.36689,1.482725 -0.19015,0.66181 -0.45297,1.302102 -0.84385,1.872896" />
    <path
       inkscape:connector-curvature="0"
       id="path1434"
       style="fill:#16120f;fill-opacity:1;fill-rule:nonzero;stroke:none;stroke-width:0.03527778"
       d="m 88.913697,-82.10407 c 3.44e-4,0 3.44e-4,-3.44e-4 3.44e-4,-3.44e-4 l -3.44e-4,3.44e-4 m 0.01023,-0.0078 c 3.44e-4,-3.44e-4 7.14e-4,-7.15e-4 0.0011,-0.0011 -3.44e-4,3.44e-4 -7.15e-4,7.14e-4 -0.0011,0.0011 m 0.0099,-0.0078 c 7.14e-4,-7.15e-4 0.0018,-0.0011 0.0025,-0.0018 -7.15e-4,7.14e-4 -0.0018,0.0011 -0.0025,0.0018 m 0.0099,-0.0074 c 0.0011,-0.0011 0.0025,-0.0018 0.0035,-0.0028 -0.0011,7.14e-4 -0.0025,0.0018 -0.0035,0.0028 m 0.0099,-0.0078 c 0.0018,-0.0011 0.0035,-0.0025 0.0049,-0.0035 -0.0014,0.0011 -0.0032,0.0025 -0.0049,0.0035 m 0.01023,-0.0074 c 0.0021,-0.0018 0.0039,-0.0032 0.006,-0.0046 -0.0021,0.0014 -0.0039,0.0028 -0.006,0.0046 m 0.01058,-0.0081 c 0.0021,-0.0018 0.0046,-0.0035 0.0067,-0.0049 -0.0021,0.0014 -0.0046,0.0032 -0.0067,0.0049 m 0.0099,-0.0074 c 0.0028,-0.0021 0.0053,-0.0042 0.0081,-0.0063 -0.0028,0.0021 -0.0053,0.0042 -0.0081,0.0063 m 0.01023,-0.0078 c 0.0032,-0.0025 0.0063,-0.0049 0.0095,-0.0071 -0.0032,0.0025 -0.006,0.0046 -0.0095,0.0071 m 0.01023,-0.0074 c 0.24517,-0.18168 0.523512,-0.359127 0.830428,-0.531988 -0.307269,0.172861 -0.585258,0.350308 -0.830439,0.531989 m 0.830439,-0.531989 c 0.0039,-0.0021 0.0074,-0.0042 0.01129,-0.006 -0.0039,0.0018 -0.0074,0.0039 -0.01129,0.006 m 0.01658,-0.0092 c 0.0021,-0.0014 0.0042,-0.0025 0.0063,-0.0035 -0.0021,0.0011 -0.0042,0.0021 -0.0063,0.0035 m 0.01588,-0.0088 c 7.15e-4,-3.44e-4 0.0011,-7.15e-4 0.0018,-0.0011 -7.14e-4,3.44e-4 -0.0011,7.14e-4 -0.0018,0.0011" />
    <path
       inkscape:connector-curvature="0"
       id="path1436"
       style="fill:#666666;fill-opacity:1;fill-rule:nonzero;stroke:none;stroke-width:0.03527778"
       d="m 89.096788,0.19263357 c -0.665691,-0.353131 -1.248833,-0.8255 -1.695097,-1.43862697 -0.43568,-0.599016 -0.72143,-1.280231 -0.924277,-1.986491 -0.140406,-0.48895 -0.250825,-0.987074 -0.366184,-1.482725 V -38.693001 l -0.1143,-31.322433 c 0,0 -0.02223,-0.455789 -0.02223,-1.1938 0,-1.228372 0.06138,-3.239558 0.388409,-5.235222 0.646994,-0.19297 1.166988,-0.376767 1.420988,-0.518231 0.01023,-0.0056 0.02011,-0.01129 0.02928,-0.01693 0.0035,-0.0018 0.0067,-0.0039 0.0099,-0.0056 7.15e-4,-3.44e-4 0.0011,-7.15e-4 0.0018,-0.0011 0.0032,-0.0021 0.0063,-0.0039 0.0095,-0.006 v 0 c 0.0035,-0.0021 0.0071,-0.0046 0.01058,-0.0067 0.0085,-0.0056 0.01658,-0.01093 0.02399,-0.01623 7.15e-4,-7.14e-4 0.0018,-0.0014 0.0025,-0.0018 0.0021,-0.0014 0.0039,-0.0028 0.006,-0.0042 0.0011,-7.14e-4 0.0021,-0.0018 0.0032,-0.0025 0.01094,-0.0081 0.02081,-0.01623 0.02963,-0.02434 7.15e-4,-3.44e-4 0.0011,-0.0011 0.0018,-0.0014 7.15e-4,-0.0011 0.0014,-0.0018 0.0025,-0.0025 7.15e-4,-7.14e-4 0.0014,-0.0014 0.0021,-0.0021 0,0 3.44e-4,-3.44e-4 3.44e-4,-3.44e-4 0.0053,-0.0053 0.01023,-0.01023 0.01411,-0.01517 0.0018,-0.0021 0.0035,-0.0042 0.0049,-0.0063 0.0011,-0.0014 0.0025,-0.0032 0.0035,-0.0046 7.15e-4,-0.0011 0.0014,-0.0018 0.0021,-0.0028 3.44e-4,-3.44e-4 7.15e-4,-7.15e-4 0.0011,-0.0014 0.257528,-0.350661 0.264584,-0.796572 0.157339,-1.428397 l 0.773995,-0.348192 c 0,0 0.675216,-0.678745 0,-1.150056 -0.141111,-0.09842 -0.426861,-0.131586 -0.745067,-0.131586 -0.1778,0 -0.365478,0.01023 -0.543983,0.02505 -0.0487,-0.04799 -0.09527,-0.07727 -0.136898,-0.09455 0.27552,-0.5715 0.602192,-1.073856 0.988484,-1.470731 0.138641,-0.142875 0.29845,-0.282927 0.476955,-0.420864 l 3.44e-4,-3.44e-4 c 0.0032,-0.0025 0.0063,-0.0049 0.0099,-0.0074 3.44e-4,-3.44e-4 7.14e-4,-7.14e-4 0.0011,-0.0011 0.0028,-0.0021 0.006,-0.0046 0.0088,-0.0067 7.14e-4,-7.14e-4 0.0018,-0.0011 0.0025,-0.0018 0.0025,-0.0018 0.0049,-0.0039 0.0074,-0.0056 0.0011,-0.0011 0.0025,-0.0021 0.0035,-0.0028 0.0021,-0.0018 0.0042,-0.0032 0.0063,-0.0049 0.0018,-0.0011 0.0035,-0.0025 0.0049,-0.0035 0.0018,-0.0014 0.0035,-0.0028 0.0053,-0.0039 0.0021,-0.0018 0.0039,-0.0032 0.006,-0.0046 0.0014,-0.0014 0.0028,-0.0025 0.0046,-0.0035 0.0021,-0.0018 0.0046,-0.0035 0.0067,-0.0049 0.0011,-0.0011 0.0021,-0.0018 0.0032,-0.0025 0.0028,-0.0021 0.0053,-0.0042 0.0081,-0.0063 7.14e-4,-3.44e-4 0.0014,-7.14e-4 0.0021,-0.0014 0.0035,-0.0025 0.0063,-0.0046 0.0095,-0.0071 3.44e-4,0 3.44e-4,-3.44e-4 7.14e-4,-3.44e-4 0.245159,-0.181677 0.523148,-0.359125 0.830417,-0.531986 v 0 c 0.0039,-0.0021 0.0074,-0.0042 0.01129,-0.006 0.0018,-0.0014 0.0035,-0.0021 0.0053,-0.0032 0.0021,-0.0014 0.0042,-0.0025 0.0063,-0.0035 0.0032,-0.0018 0.0063,-0.0035 0.0095,-0.0053 7.15e-4,-3.44e-4 0.0011,-7.14e-4 0.0018,-0.0011 0.0042,-0.0025 0.0088,-0.0049 0.01305,-0.0074 v 0.13582 c -0.2667,0.280811 -0.503061,0.592666 -0.664633,0.906991 v 0 c -0.0053,0.01023 -0.01023,0.02046 -0.01552,0.03069 -0.05891,0.118887 -0.107245,0.238125 -0.14217,0.3556 -7.14e-4,0.0018 -0.0011,0.0032 -0.0014,0.0046 -3.43e-4,0.0011 -7.14e-4,0.0018 -7.14e-4,0.0025 -0.02046,0.0702 -0.03634,0.1397 -0.04692,0.208492 v 0 c -0.0063,0.04304 -0.0095,0.0829 -0.0095,0.120297 7.14e-4,0.34537 0.27552,0.450145 0.649464,0.450145 0.07373,0 0.151342,-0.0042 0.231422,-0.01129 v 21.792845 c -0.14605,0 -0.283633,0 -0.408516,0 -1.0668,0 -1.109134,1.164167 -1.109134,1.164167 v 54.9924096 c -0.01164,0.684742 0.819503,0.709435 0.938742,0.709435 0.0095,0 0.01446,-2.64e-4 0.01446,-2.64e-4 0,0 0.223308,-0.06244 0.564445,-0.166865 v 0.111831 l -2.3622,0.677334 c 0,0 0.472722,0.77751997 1.576563,1.43933297" />
    <path
       inkscape:connector-curvature="0"
       id="path1438"
       style="fill:#cccccc;fill-opacity:1;fill-rule:nonzero;stroke:none;stroke-width:0.03527778"
       d="m 119.96237,-5.0926834 c -0.0381,0 -21.571298,0 -21.571298,0 -0.369359,-0.183443 -0.711553,-0.45861 -0.996245,-0.868891 -0.587022,-0.844902 -0.772936,-2.061985 -0.817033,-3.225448 -0.02575,-17.3337356 -1.374775,-56.4980646 -0.478719,-57.1182476 0.895702,-0.618773 6.974415,-0.748242 12.875685,-0.899584 0.42545,-0.01199 0.86924,-0.01799 1.32538,-0.01799 4.9082,0 11.25326,0.669572 12.07276,1.235427 0.89571,0.620184 -0.25541,49.357492 -0.16192,53.445479 0.0483,2.103263 0.37394,5.5887056 -0.91899,6.9144456 -0.32879,0.33655 -0.76164,0.534104 -1.32962,0.53481" />
    <path
       inkscape:connector-curvature="0"
       id="path1440"
       style="fill:#040606;fill-opacity:1;fill-rule:nonzero;stroke:none;stroke-width:0.03527778"
       d="m 120.12254,-3.3330264 c 0,0 -9.11437,0.334079 -23.281221,0 0,0 -0.616655,-0.06668 -1.101019,0.148167 -0.484364,0.214841 -4.314825,3.13301797 -4.314825,3.13301797 0,0 -1.075267,0.696029 -0.150284,0.84455 0.924631,0.148871 15.080899,1.62136703 35.291889,0.141817 0,0 1.05692,-0.324205 0.12841,-0.823738 -0.39299,-0.211667 -4.71205,-3.13442897 -4.71205,-3.13442897 0,0 -0.51612,-0.329142 -1.18851,-0.319617 l -0.67239,0.01024" />
    <path
       inkscape:connector-curvature="0"
       id="path1442"
       style="fill:#133447;fill-opacity:1;fill-rule:nonzero;stroke:none;stroke-width:0.03527778"
       d="m 120.12254,-3.0596244 c 0,0 -9.11437,0.308681 -23.281221,0 0,0 -0.616655,-0.06138 -1.101019,0.137231 -0.484364,0.19826 -4.314825,2.89348097 -4.314825,2.89348097 0,0 -1.075267,0.642408 -0.150284,0.779992 0.924631,0.136879 15.080899,1.49754103 35.291889,0.131233 0,0 1.05692,-0.29986 0.12841,-0.761294 -0.39299,-0.195791 -4.71205,-2.89489297 -4.71205,-2.89489297 0,0 -0.51612,-0.303742 -1.18851,-0.294569 l -0.67239,0.0088" />
    <path
       inkscape:connector-curvature="0"
       id="path1444"
       style="fill:#0a1920;fill-opacity:1;fill-rule:nonzero;stroke:none;stroke-width:0.03527778"
       d="m 124.9309,-0.94366443 c -2.7e-4,0 -8e-4,0 -8e-4,0 -1.32715,-0.81809197 -2.91041,-1.80763297 -2.94604,-1.82985797 0.036,0.02222 1.61995,1.011766 2.94675,1.82985797 M 93.155497,-1.2322344 c 1.083733,-0.74648 2.323394,-1.583267 2.584803,-1.690159 -0.261761,0.107244 -1.50107,0.944034 -2.584803,1.690159 m 28.828643,-1.541288 c -2.6e-4,-2.65e-4 -2.6e-4,-2.65e-4 -2.6e-4,-2.65e-4 0,0 0,0 2.6e-4,2.65e-4" />
    <path
       inkscape:connector-curvature="0"
       id="path1446"
       style="fill:#1e4b65;fill-opacity:1;fill-rule:nonzero;stroke:none;stroke-width:0.03527778"
       d="m 92.237569,-0.59653143 c 0.269875,-0.187677 0.586317,-0.40745797 0.917928,-0.63570297 1.083733,-0.746125 2.323042,-1.582915 2.584803,-1.690159 v 0 c 0.299508,-0.122766 0.649464,-0.14605 0.873125,-0.14605 0.137936,0 0.227894,0.0088 0.227894,0.0088 4.722631,0.10301 8.882941,0.137231 12.332051,0.137231 6.89751,0 10.94917,-0.137231 10.94917,-0.137231 l 0.67239,-0.0088 c 0.01,-2.64e-4 0.0194,-2.64e-4 0.0293,-2.64e-4 0.65793,0 1.15923,0.294923 1.15923,0.294923 h 2.6e-4 c 0,0 0,0 2.6e-4,2.64e-4 v 0 c 0.0356,0.02223 1.6189,1.011767 2.94605,1.82985897 -2.66277,-0.40040197 -5.51074,-0.59196097 -8.28146,-0.70837697 -2.14877,-0.09031 -4.30671,-0.129469 -6.46359,-0.159102 -0.48472,-0.0067 -0.96944,-0.0099 -1.45486,-0.0099 -2.02953,0 -4.06364,0.05786 -6.07554,0.162279 -3.55282,0.185913 -7.04532,0.546452 -10.41717,1.06221297" />
    <path
       inkscape:connector-curvature="0"
       id="path1448"
       style="fill:#040606;fill-opacity:1;fill-rule:nonzero;stroke:none;stroke-width:0.03527778"
       d="m 87.663805,-78.317001 1.210381,-0.544336 c 0,0 0.675216,-0.678744 0,-1.150056 -0.423334,-0.29598 -2.148417,0 -2.148417,0 l 0.938036,1.694392" />
    <path
       inkscape:connector-curvature="0"
       id="path1450"
       style="fill:#1a1b1b;fill-opacity:1;fill-rule:nonzero;stroke:none;stroke-width:0.03527778"
       d="m 87.270458,-80.223059 c 0,0 0.423686,-0.181681 0.665692,0.90805 0.242358,1.089025 0.363361,1.75507 0,2.239081 -0.363009,0.484363 -6.354939,1.93675 -7.081308,1.694744 -0.726017,-0.242006 -0.06068,-1.937103 1.392061,-3.268486 1.452738,-1.331736 3.994502,-1.694392 5.023555,-1.573389" />
    <path
       inkscape:connector-curvature="0"
       id="path1452"
       style="fill:#1a1b1b;fill-opacity:1;fill-rule:nonzero;stroke:none;stroke-width:0.03527778"
       d="m 81.106725,-75.35402 c -3.52e-4,0 -3.52e-4,0 -3.52e-4,0 0,0 0,0 3.52e-4,0 v 0 m -0.248003,-0.02575 c -0.0014,-3.44e-4 -0.0025,-7.14e-4 -0.0039,-0.0014 v 0 0 c 0.0014,7.14e-4 0.0025,0.0011 0.0039,0.0014 m -0.0092,-0.0032 h -3.52e-4 3.52e-4" />
    <path
       inkscape:connector-curvature="0"
       id="path1454"
       style="fill:#d3772e;fill-opacity:1;fill-rule:nonzero;stroke:none;stroke-width:0.03527778"
       d="m 87.784102,-76.962687 c 0.01023,-0.0056 0.02011,-0.01129 0.02928,-0.01693 -0.0092,0.0056 -0.01905,0.01129 -0.02928,0.01693 m 0.03916,-0.02258 c 7.15e-4,-3.44e-4 0.0011,-7.15e-4 0.0018,-0.0011 -7.14e-4,3.44e-4 -0.0011,7.15e-4 -0.0018,0.0011 m 0.01129,-0.0071 v 0 0 m 0.01058,-0.0067 c 0.0085,-0.0056 0.01658,-0.01093 0.02399,-0.01623 -0.0074,0.0053 -0.01552,0.01058 -0.02399,0.01623 m 0.02646,-0.01799 c 0.0021,-0.0014 0.0039,-0.0028 0.006,-0.0042 -0.0021,0.0014 -0.0039,0.0028 -0.006,0.0042 m 0.0092,-0.0067 c 0.01093,-0.0081 0.02081,-0.01623 0.02963,-0.02434 -0.0088,0.0081 -0.0187,0.01623 -0.02963,0.02434 m 0.0314,-0.02575 c 7.15e-4,-0.0011 0.0014,-0.0018 0.0025,-0.0025 -0.0011,7.14e-4 -0.0018,0.0014 -0.0025,0.0025 m 0.0046,-0.0046 c 0,0 3.44e-4,-3.43e-4 3.44e-4,-3.43e-4 0,0 -3.44e-4,3.43e-4 -3.44e-4,3.43e-4 m 0.01447,-0.01552 c 0.0018,-0.0021 0.0035,-0.0042 0.0049,-0.0064 0.0011,-0.0014 0.0025,-0.0032 0.0035,-0.0046 -0.0011,0.0014 -0.0025,0.0032 -0.0035,0.0046 -0.0014,0.0021 -0.0032,0.0042 -0.0049,0.0064 m 0.01058,-0.01376 c 3.44e-4,-3.44e-4 7.15e-4,-7.14e-4 0.0011,-0.0014 -3.43e-4,7.14e-4 -7.14e-4,0.0011 -0.0011,0.0014" />
    <path
       inkscape:connector-curvature="0"
       id="path1456"
       style="fill:#323335;fill-opacity:1;fill-rule:nonzero;stroke:none;stroke-width:0.03527778"
       d="m 81.106725,-75.35402 c -3.52e-4,0 -3.52e-4,0 -3.52e-4,0 -0.108303,0 -0.192264,-0.0085 -0.24765,-0.02575 -0.0014,-3.44e-4 -0.0025,-7.14e-4 -0.0039,-0.0014 v 0 c -0.0018,-3.44e-4 -0.0035,-0.0011 -0.0053,-0.0018 h -3.51e-4 c -0.230013,-0.08006 -0.316796,-0.308306 -0.282224,-0.624747 2.5019,-0.859014 4.977341,-1.821745 7.539213,-2.465917 0.100189,0.610306 0.08855,1.045633 -0.163336,1.388886 -3.44e-4,7.15e-4 -7.14e-4,0.0011 -0.0011,0.0014 -7.14e-4,0.0011 -0.0014,0.0018 -0.0021,0.0028 -0.0011,0.0014 -0.0025,0.0032 -0.0035,0.0046 -0.0014,0.0021 -0.0032,0.0042 -0.0049,0.0063 -0.0039,0.0049 -0.0088,0.0099 -0.01411,0.01517 0,0 -3.44e-4,3.44e-4 -3.44e-4,3.44e-4 -7.14e-4,7.14e-4 -0.0014,0.0014 -0.0021,0.0021 -0.0011,7.15e-4 -0.0018,0.0014 -0.0025,0.0025 -7.14e-4,3.44e-4 -0.0011,0.0011 -0.0018,0.0014 -0.0088,0.0081 -0.0187,0.01623 -0.02963,0.02434 -0.0011,7.14e-4 -0.0021,0.0018 -0.0032,0.0025 -0.0021,0.0014 -0.0039,0.0028 -0.006,0.0042 -7.14e-4,3.44e-4 -0.0018,0.0011 -0.0025,0.0018 -0.0074,0.0053 -0.01552,0.01058 -0.02399,0.01623 -0.0035,0.0021 -0.0071,0.0046 -0.01058,0.0067 v 0 c -0.0032,0.0021 -0.0064,0.0039 -0.0095,0.006 -7.14e-4,3.44e-4 -0.0011,7.15e-4 -0.0018,0.0011 -0.0032,0.0018 -0.0063,0.0039 -0.0099,0.0056 -0.0092,0.0056 -0.01905,0.01129 -0.02928,0.01693 -0.930627,0.517525 -5.42678,1.608666 -6.677377,1.608666" />
    <path
       inkscape:connector-curvature="0"
       id="path1458"
       style="fill:#040606;fill-opacity:1;fill-rule:nonzero;stroke:none;stroke-width:0.03527778"
       d="m 130.05041,-78.317001 -1.21074,-0.544336 c 0,0 -0.67486,-0.678744 0,-1.150056 0.42404,-0.29598 2.14877,0 2.14877,0 l -0.93803,1.694392" />
    <path
       inkscape:connector-curvature="0"
       id="path1460"
       style="fill:#1a1b1b;fill-opacity:1;fill-rule:nonzero;stroke:none;stroke-width:0.03527778"
       d="m 130.44375,-80.223059 c 0,0 -0.42368,-0.181681 -0.66569,0.90805 -0.24236,1.089025 -0.36336,1.75507 0,2.239081 0.36301,0.484363 6.35529,1.93675 7.08166,1.694744 0.72567,-0.242006 0.06,-1.937103 -1.39241,-3.268486 -1.45274,-1.331736 -3.9945,-1.694392 -5.02356,-1.573389" />
    <path
       inkscape:connector-curvature="0"
       id="path1462"
       style="fill:#d3772e;fill-opacity:1;fill-rule:nonzero;stroke:none;stroke-width:0.03527778"
       d="m 129.96609,-76.943284 c 0,0 -2.6e-4,-3.44e-4 -2.6e-4,-3.44e-4 0,0 2.6e-4,3.44e-4 2.6e-4,3.44e-4 m -0.0268,-0.01411 c -0.0145,-0.0081 -0.0282,-0.01587 -0.0413,-0.02363 0.013,0.0078 0.0268,0.01552 0.0413,0.02363 m -0.0423,-0.02434 c -0.0392,-0.02364 -0.0702,-0.04551 -0.0931,-0.06632 0.0229,0.02081 0.054,0.04269 0.0931,0.06632 m -0.0945,-0.06773 c -0.002,-0.0018 -0.004,-0.0032 -0.005,-0.0049 0.002,0.0018 0.004,0.0032 0.005,0.0049 m -0.01,-0.0092 c -0.006,-0.006 -0.0106,-0.01164 -0.0148,-0.01728 -0.001,-0.0018 -0.002,-0.0032 -0.004,-0.0049 0.001,0.0018 0.002,0.0032 0.004,0.0049 0.004,0.0056 0.009,0.01129 0.0148,0.01728 m -0.0198,-0.02363 c -7.9e-4,-0.0014 -0.002,-0.0028 -0.003,-0.0042 0.001,0.0014 0.002,0.0028 0.003,0.0042 m -0.004,-0.0053 c -0.001,-0.0018 -0.002,-0.0035 -0.004,-0.0049 0.001,0.0014 0.002,0.0032 0.004,0.0049 m -0.004,-0.0063 c -0.001,-0.0014 -0.002,-0.0025 -0.003,-0.0039 8e-4,0.0014 0.002,0.0025 0.003,0.0039 m -0.004,-0.0053 c -0.001,-0.0018 -0.002,-0.0035 -0.003,-0.0049 0.001,0.0014 0.002,0.0032 0.003,0.0049 m -0.004,-0.006 c -0.001,-0.0014 -0.002,-0.0028 -0.003,-0.0042 8e-4,0.0014 0.002,0.0028 0.003,0.0042 m -0.004,-0.006 c -7.9e-4,-0.0011 -0.001,-0.0025 -0.002,-0.0032 0.001,7.14e-4 0.002,0.0021 0.002,0.0032 m -0.004,-0.0053 c -0.001,-0.0014 -0.002,-0.0032 -0.003,-0.0046 0.001,0.0014 0.002,0.0032 0.003,0.0046 m -0.005,-0.0074 c -2.6e-4,-3.44e-4 -10e-4,-0.0011 -10e-4,-0.0018 2.7e-4,7.15e-4 10e-4,0.0014 10e-4,0.0018 m -0.004,-0.0049 c -2.6e-4,-3.44e-4 -2.6e-4,-7.14e-4 -7.9e-4,-0.0011 2.6e-4,3.44e-4 2.6e-4,7.14e-4 7.9e-4,0.0011" />
    <path
       inkscape:connector-curvature="0"
       id="path1464"
       style="fill:#323335;fill-opacity:1;fill-rule:nonzero;stroke:none;stroke-width:0.03527778"
       d="m 136.60784,-75.35402 c -1.23508,0 -5.63668,-1.064331 -6.64175,-1.589264 0,0 -2.6e-4,-3.44e-4 -2.6e-4,-3.44e-4 -0.009,-0.0046 -0.018,-0.0095 -0.0265,-0.01376 -0.0145,-0.0081 -0.0282,-0.01588 -0.0413,-0.02364 -2.7e-4,-3.44e-4 -8e-4,-3.44e-4 -0.001,-7.15e-4 -0.0392,-0.02364 -0.0702,-0.04551 -0.0931,-0.06632 -2.7e-4,-3.44e-4 -0.001,-0.0011 -0.001,-0.0014 -0.002,-0.0018 -0.004,-0.0032 -0.005,-0.0049 -0.001,-0.0014 -0.003,-0.0028 -0.004,-0.0042 -0.006,-0.006 -0.0106,-0.01164 -0.0148,-0.01729 -0.001,-0.0018 -0.002,-0.0032 -0.004,-0.0049 -2.7e-4,-7.14e-4 -8e-4,-0.0011 -10e-4,-0.0014 -8e-4,-0.0014 -0.002,-0.0028 -0.003,-0.0042 -2.7e-4,-3.44e-4 -8e-4,-7.15e-4 -0.001,-0.0011 -0.001,-0.0018 -0.002,-0.0035 -0.004,-0.0049 -2.7e-4,-3.44e-4 -8e-4,-0.0011 -8e-4,-0.0014 -0.001,-0.0014 -0.002,-0.0025 -0.003,-0.0039 -2.6e-4,-7.14e-4 -7.9e-4,-0.0011 -0.001,-0.0014 -10e-4,-0.0018 -0.002,-0.0035 -0.003,-0.0049 -2.6e-4,-3.44e-4 -2.6e-4,-7.14e-4 -7.9e-4,-0.0011 -0.001,-0.0014 -0.002,-0.0028 -0.003,-0.0042 -7.9e-4,-3.44e-4 -0.001,-0.0011 -0.001,-0.0018 -7.9e-4,-0.0011 -10e-4,-0.0025 -0.002,-0.0032 -2.6e-4,-7.15e-4 -7.9e-4,-0.0014 -0.001,-0.0021 -0.001,-0.0014 -0.002,-0.0032 -0.003,-0.0046 -7.9e-4,-7.15e-4 -10e-4,-0.0018 -0.002,-0.0028 -2.6e-4,-3.44e-4 -0.001,-0.0011 -0.001,-0.0018 -7.9e-4,-0.0011 -0.001,-0.0021 -0.002,-0.0032 -2.6e-4,-3.44e-4 -2.6e-4,-7.14e-4 -7.9e-4,-0.0011 -0.22155,-0.336198 -0.2279,-0.759884 -0.13229,-1.343731 2.56222,0.644172 5.03766,1.606903 7.53956,2.465917 0.0349,0.318911 -0.0536,0.548216 -0.28751,0.626533 v 0 c -0.001,7.14e-4 -0.003,0.0011 -0.004,0.0014 -0.0554,0.01728 -0.13935,0.02575 -0.24765,0.02575 h -2.7e-4" />
    <path
       inkscape:connector-curvature="0"
       id="path1466"
       style="fill:#040606;fill-opacity:1;fill-rule:nonzero;stroke:none;stroke-width:0.03527778"
       d="m 120.49225,-67.948509 c 0,0 -9.3726,-0.904875 -23.940914,0 0,0 -0.633942,0.178858 -1.131711,-0.402167 -0.498475,-0.580672 -4.577997,-8.2423 -4.577997,-8.2423 0,0 -1.318684,-2.243666 -0.01446,-2.52483 1.054453,-0.227542 15.508462,-4.389967 36.292362,-0.384528 0,0 1.08656,0.877711 0.13194,2.230967 -0.40393,0.572911 -4.8454,8.486422 -4.8454,8.486422 0,0 -0.53058,0.888647 -1.22238,0.862541 l -0.69144,-0.02611" />
    <path
       inkscape:connector-curvature="0"
       id="path1468"
       style="fill:#133447;fill-opacity:1;fill-rule:nonzero;stroke:none;stroke-width:0.03527778"
       d="m 120.34725,-68.116784 c 0,0 -9.20256,-0.832203 -23.506989,0 0,0 -0.6223,0.164041 -1.111603,-0.369359 -0.48895,-0.534458 -4.356453,-7.798505 -4.356453,-7.798505 0,0 -1.08585,-1.731786 -0.152047,-2.101497 0.933803,-0.369711 15.227302,-4.035425 35.634432,-0.352778 0,0 1.06716,0.806803 0.12982,2.050697 -0.39687,0.526345 -4.7572,7.802386 -4.7572,7.802386 0,0 -0.52176,0.816328 -1.20015,0.792692 l -0.67981,-0.02364" />
    <path
       inkscape:connector-curvature="0"
       id="path1470"
       style="fill:#0a1920;fill-opacity:1;fill-rule:nonzero;stroke:none;stroke-width:0.03527778"
       d="m 121.33221,-68.137245 c 0.52352,-0.16757 0.895,-0.748595 0.895,-0.748595 0,0 1.73566,-2.896305 3.11644,-5.166077 0.005,-0.0018 0.0102,-0.0035 0.0155,-0.0049 -1.38113,2.270125 -3.11644,5.165725 -3.11644,5.165725 0,0 -0.37818,0.593019 -0.91052,0.753886" />
    <path
       inkscape:connector-curvature="0"
       id="path1472"
       style="fill:#1e4b65;fill-opacity:1;fill-rule:nonzero;stroke:none;stroke-width:0.03527778"
       d="m 121.07115,-68.097381 c -0.01,0 -0.0191,0 -0.0289,-3.44e-4 l -0.67874,-0.02399 c 0,0 -4.08975,-0.369711 -11.05535,-0.369711 -3.48227,0 -7.68385,0.09243 -12.451644,0.369711 0,0 -0.08996,0.02399 -0.2286,0.02399 -0.225778,0 -0.579967,-0.06315 -0.883356,-0.3937 -0.254,-0.277636 -1.422753,-2.376664 -2.485672,-4.32682 0.07091,0.01094 0.141464,0.02223 0.212019,0.03281 4.282017,0.649816 8.697733,0.84455 13.080293,0.84455 0.47166,0 0.94333,-0.0021 1.41394,-0.0064 2.21226,-0.02011 4.44252,-0.05891 6.64562,-0.205317 2.73615,-0.18168 5.44407,-0.556683 8.04651,-1.1684 0.91546,-0.214841 1.8101,-0.460375 2.6864,-0.730955 -1.38077,2.269772 -3.11644,5.166077 -3.11644,5.166077 0,0 -0.37147,0.581025 -0.89499,0.748595 -0.0833,0.02505 -0.17075,0.03986 -0.26106,0.03986" />
    <path
       inkscape:connector-curvature="0"
       id="path1474"
       style="fill:#ccccbf;fill-opacity:1;fill-rule:nonzero;stroke:none;stroke-width:0.03527778"
       d="m 127.36647,-80.623815 c 0.77153,0.145698 1.61961,0.257175 1.50954,-0.462844 -0.0963,-0.63112 -0.635,-1.331736 -1.22414,-1.847145 -0.29563,-0.258938 -0.66287,-0.531636 -1.07985,-0.715786 -2.0186,-0.890763 -5.34494,-1.356783 -5.34494,-1.356783 0,0 -0.20955,0.159456 -0.0321,0.445206 0,0 0.63923,1.911702 3.58528,3.249788 0.82585,0.279048 1.69757,0.519289 2.58621,0.687564" />
    <path
       inkscape:connector-curvature="0"
       id="path1476"
       style="fill:#d5dfd7;fill-opacity:1;fill-rule:nonzero;stroke:none;stroke-width:0.03527778"
       d="m 127.59931,-81.850423 c -0.22755,-0.04269 -0.45367,-0.09031 -0.67734,-0.143228 -0.95038,-0.224366 -1.84891,-0.534458 -2.68322,-0.90805 0.12735,-0.147461 0.41239,-0.221191 0.77434,-0.221191 0.38982,0 0.8696,0.08502 1.3395,0.254 0.78599,0.282222 1.28799,0.706261 1.24672,1.018469" />
    <path
       inkscape:connector-curvature="0"
       id="path1478"
       style="fill:#dbd1b3;fill-opacity:1;fill-rule:nonzero;stroke:none;stroke-width:0.03527778"
       d="m 122.76907,-83.382184 c -0.52881,-0.162278 -0.83573,-0.470253 -0.68509,-0.687564 0.15028,-0.217311 0.70097,-0.261761 1.23013,-0.09878 0.52882,0.162278 0.83574,0.470253 0.68545,0.687564 -0.15063,0.217311 -0.70167,0.261761 -1.23049,0.09878" />
    <path
       inkscape:connector-curvature="0"
       id="path1480"
       style="fill:#696d6f;fill-opacity:1;fill-rule:nonzero;stroke:none;stroke-width:0.03527778"
       d="m 121.43275,-84.975681 c -0.13194,-0.02046 -0.20567,-0.03069 -0.20567,-0.03069 0,0 0.0737,0.01023 0.20567,0.03069" />
    <path
       inkscape:connector-curvature="0"
       id="path1482"
       style="fill:#e0e0d7;fill-opacity:1;fill-rule:nonzero;stroke:none;stroke-width:0.03527778"
       d="m 128.23607,-80.516217 c -0.26141,0 -0.5715,-0.05115 -0.8696,-0.107598 -0.88864,-0.168275 -1.76036,-0.408516 -2.58621,-0.687564 -2.94605,-1.338086 -3.58528,-3.249788 -3.58528,-3.249788 -0.0526,-0.08502 -0.0713,-0.158398 -0.0713,-0.220134 -2.7e-4,-0.14605 0.10336,-0.225072 0.10336,-0.225072 v 0 c 0,0 0.0737,0.01023 0.20567,0.03069 0.0413,0.0067 0.0885,0.01411 0.14076,0.02258 l -0.002,0.01235 c -0.0236,0.225778 0.21872,0.461433 0.41487,0.642761 0.0564,0.05186 0.115,0.102659 0.17533,0.152753 -0.0318,0.02222 -0.0579,0.04727 -0.0773,0.07549 -0.15064,0.217311 0.15628,0.525286 0.68509,0.687564 0.2152,0.06632 0.43392,0.09842 0.62759,0.09842 0.0204,0 0.0406,-3.44e-4 0.0603,-0.0011 0.10266,0.0568 0.20779,0.112183 0.31574,0.164747 0.15275,0.07514 0.30833,0.147814 0.46602,0.21837 -0.002,0.0021 -0.004,0.0042 -0.005,0.0063 -0.25858,0.312208 0.27129,0.831497 1.18392,1.158875 0.46955,0.16898 0.94897,0.254 1.33915,0.254 0.36689,0 0.65475,-0.0755 0.77999,-0.227189 0.0356,-0.04339 0.0564,-0.09066 0.0628,-0.140759 0.35313,0.06562 0.71014,0.119239 1.06997,0.161925 0.10372,0.202142 0.17639,0.405342 0.20673,0.601839 0.007,0.04304 0.01,0.0829 0.01,0.120297 -7.9e-4,0.345372 -0.27552,0.450147 -0.64982,0.450147" />
    <path
       inkscape:connector-curvature="0"
       id="path1484"
       style="fill:#e6ebe5;fill-opacity:1;fill-rule:nonzero;stroke:none;stroke-width:0.03527778"
       d="m 126.75652,-81.482476 c -0.39017,0 -0.8696,-0.08502 -1.33914,-0.254 -0.91264,-0.327378 -1.44251,-0.846666 -1.18393,-1.158875 0.002,-0.0021 0.003,-0.0042 0.005,-0.0063 0.83432,0.373592 1.73285,0.683684 2.68323,0.90805 0.22366,0.05292 0.44979,0.100542 0.67733,0.143228 -0.006,0.05009 -0.0272,0.09737 -0.0628,0.140758 -0.12523,0.151695 -0.4131,0.227189 -0.77999,0.227189" />
    <path
       inkscape:connector-curvature="0"
       id="path1486"
       style="fill:#e9e4cf;fill-opacity:1;fill-rule:nonzero;stroke:none;stroke-width:0.03527778"
       d="m 123.39666,-83.283759 c -0.19367,0 -0.41239,-0.0321 -0.62759,-0.09842 -0.52881,-0.162278 -0.83573,-0.470253 -0.68509,-0.687564 0.0194,-0.02822 0.0455,-0.05327 0.0773,-0.07549 0.23636,0.194733 0.50235,0.375708 0.77505,0.549275 0.16828,0.106892 0.34114,0.211667 0.5207,0.31115 -0.0198,7.14e-4 -0.0399,0.0011 -0.0603,0.0011" />
    <path
       inkscape:connector-curvature="0"
       id="path1488"
       style="fill:#ccccbf;fill-opacity:1;fill-rule:nonzero;stroke:none;stroke-width:0.03527778"
       d="m 90.5206,-80.623815 c -0.771525,0.145698 -1.61925,0.257175 -1.509537,-0.462844 0.09631,-0.63112 0.635,-1.331736 1.224139,-1.847145 0.295628,-0.258938 0.663223,-0.531636 1.079853,-0.715786 2.0193,-0.890763 5.345289,-1.356783 5.345289,-1.356783 0,0 0.20955,0.159456 0.03175,0.445206 0,0 -0.63888,1.911702 -3.584928,3.249788 -0.826205,0.279048 -1.697566,0.519289 -2.586566,0.687564" />
    <path
       inkscape:connector-curvature="0"
       id="path1490"
       style="fill:#d5dfd7;fill-opacity:1;fill-rule:nonzero;stroke:none;stroke-width:0.03527778"
       d="m 90.287413,-81.850423 c -0.04092,-0.312208 0.461434,-0.736247 1.247423,-1.018469 0.4699,-0.168981 0.949325,-0.254 1.339144,-0.254 0.362303,0 0.646995,0.07338 0.7747,0.221191 -0.834319,0.373592 -1.732844,0.683684 -2.683227,0.90805 -0.224014,0.05292 -0.450145,0.100542 -0.67804,0.143228" />
    <path
       inkscape:connector-curvature="0"
       id="path1492"
       style="fill:#dbd1b3;fill-opacity:1;fill-rule:nonzero;stroke:none;stroke-width:0.03527778"
       d="m 95.118352,-83.382184 c 0.528814,-0.162278 0.835731,-0.470253 0.685095,-0.687564 -0.149931,-0.217311 -0.701322,-0.261761 -1.230489,-0.09878 -0.528814,0.162278 -0.83573,0.470253 -0.685094,0.687564 0.150636,0.217311 0.701322,0.261761 1.230488,0.09878" />
    <path
       inkscape:connector-curvature="0"
       id="path1494"
       style="fill:#de9a5e;fill-opacity:1;fill-rule:nonzero;stroke:none;stroke-width:0.03527778"
       d="m 89.011063,-81.086659 c 0.01058,-0.06879 0.02646,-0.138289 0.04692,-0.208492 -0.02046,0.0702 -0.03634,0.1397 -0.04692,0.208492 m 0.04763,-0.210961 c 3.44e-4,-0.0014 7.15e-4,-0.0028 0.0014,-0.0046 -7.14e-4,0.0018 -0.0011,0.0032 -0.0014,0.0046 m 0.143581,-0.360186 c 0.0053,-0.01023 0.01023,-0.02046 0.01552,-0.03069 v 0 c -0.0053,0.01023 -0.01023,0.02046 -0.01552,0.03069" />
    <path
       inkscape:connector-curvature="0"
       id="path1496"
       style="fill:#f4c575;fill-opacity:1;fill-rule:nonzero;stroke:none;stroke-width:0.03527778"
       d="m 96.468786,-84.977798 c 0.123119,-0.01905 0.191558,-0.02857 0.191558,-0.02857 0,0 -0.06844,0.0095 -0.191558,0.02857" />
    <path
       inkscape:connector-curvature="0"
       id="path1498"
       style="fill:#e0e0d7;fill-opacity:1;fill-rule:nonzero;stroke:none;stroke-width:0.03527778"
       d="m 89.651002,-80.516217 c -0.373944,0 -0.648758,-0.104775 -0.649464,-0.450145 0,-0.03739 0.0032,-0.07726 0.0095,-0.120297 v 0 c 0.01058,-0.06879 0.02646,-0.138289 0.04692,-0.208492 0,-7.14e-4 3.44e-4,-0.0014 7.15e-4,-0.0025 3.44e-4,-0.0014 7.14e-4,-0.0028 0.0014,-0.0046 0.03493,-0.117827 0.08326,-0.236714 0.142169,-0.3556 0.0053,-0.01023 0.01023,-0.02046 0.01552,-0.03069 0.359833,-0.04269 0.716844,-0.09631 1.069622,-0.161925 0.0067,0.05009 0.02752,0.09737 0.06315,0.140759 0.125236,0.151694 0.413103,0.227189 0.780345,0.227189 0.38982,0 0.869245,-0.08502 1.339145,-0.254 0.912283,-0.327378 1.442508,-0.846667 1.183922,-1.158875 -0.0018,-0.0021 -0.0035,-0.0042 -0.0053,-0.0063 0.157692,-0.07056 0.313267,-0.143228 0.46602,-0.21837 0.10795,-0.05256 0.212725,-0.10795 0.315736,-0.164747 0.01976,7.14e-4 0.03986,0.0011 0.05997,0.0011 0.194028,0 0.41275,-0.0321 0.627944,-0.09842 0.528813,-0.162288 0.83573,-0.470263 0.685094,-0.687574 -0.0194,-0.02822 -0.04586,-0.05327 -0.07761,-0.07549 0.06068,-0.05009 0.119239,-0.100894 0.17533,-0.152753 0.19685,-0.181327 0.439209,-0.416983 0.41522,-0.642761 l -0.0021,-0.01235 c 0.05821,-0.0095 0.110067,-0.01764 0.154517,-0.02469 0.123119,-0.01905 0.191558,-0.02858 0.191558,-0.02858 v 0 c 0,0 0.103717,0.07902 0.103364,0.225072 0,0.06174 -0.0187,0.135114 -0.07161,0.220134 0,0 -0.63888,1.911702 -3.584928,3.249788 -0.82621,0.27905 -1.697571,0.519291 -2.586571,0.687566 -0.298098,0.05644 -0.608189,0.107598 -0.869598,0.107598" />
    <path
       inkscape:connector-curvature="0"
       id="path1500"
       style="fill:#e6ebe5;fill-opacity:1;fill-rule:nonzero;stroke:none;stroke-width:0.03527778"
       d="m 91.130905,-81.482476 c -0.367241,0 -0.655108,-0.07549 -0.780344,-0.227189 -0.03563,-0.04339 -0.05644,-0.09066 -0.06315,-0.140758 0.227894,-0.04269 0.454025,-0.09031 0.678039,-0.143228 0.950383,-0.224366 1.848908,-0.534458 2.683227,-0.90805 0.0018,0.0021 0.0035,0.0042 0.0053,0.0063 0.258586,0.312209 -0.271639,0.831497 -1.183922,1.158875 -0.4699,0.168981 -0.949325,0.254 -1.339145,0.254" />
    <path
       inkscape:connector-curvature="0"
       id="path1502"
       style="fill:#e9e4cf;fill-opacity:1;fill-rule:nonzero;stroke:none;stroke-width:0.03527778"
       d="m 94.490408,-83.283759 c -0.02011,0 -0.04022,-3.44e-4 -0.05997,-0.0011 0.179564,-0.09948 0.352425,-0.204258 0.520347,-0.31115 0.272697,-0.173567 0.539044,-0.354542 0.775053,-0.549275 0.03175,0.02223 0.05821,0.04727 0.07761,0.07549 0.150636,0.217311 -0.156281,0.525286 -0.685095,0.687564 -0.215194,0.06632 -0.433916,0.09843 -0.627944,0.09843" />
    <path
       inkscape:connector-curvature="0"
       id="path1504"
       style="fill:#040606;fill-opacity:1;fill-rule:nonzero;stroke:none;stroke-width:0.03527778"
       d="m 129.13954,-60.111199 c 0.16051,-0.08149 0.28539,-0.20461 0.34889,-0.388409 0.2159,-0.627237 0.29704,-15.445315 0.29704,-15.445315 0,0 -0.0413,-2.786239 -0.80433,-1.827741 -0.76377,0.95885 -4.26226,13.18401 -4.42419,14.417674 -0.15346,1.170164 -0.74506,2.644774 0.35349,3.243791 h 4.2291" />
    <path
       inkscape:connector-curvature="0"
       id="path1506"
       style="fill:#133447;fill-opacity:1;fill-rule:nonzero;stroke:none;stroke-width:0.03527778"
       d="m 128.88554,-60.398359 c 0.14252,-0.07444 0.254,-0.186267 0.30973,-0.35419 0.19262,-0.573969 0.26459,-14.120988 0.26459,-14.120988 0,0 -0.0367,-2.547761 -0.71508,-1.671814 -0.6791,0.876653 -3.79095,12.053711 -3.93453,13.181895 -0.13653,1.069622 -0.66287,2.417938 0.31467,2.965097 h 3.76062" />
    <path
       inkscape:connector-curvature="0"
       id="path1508"
       style="fill:#040606;fill-opacity:1;fill-rule:nonzero;stroke:none;stroke-width:0.03527778"
       d="m 129.51101,-57.570493 c 0,0 -0.0416,-1.164166 -1.10878,-1.164166 -1.06715,0 -3.07622,0 -3.07622,0 0,0 -1.05234,0 -1.02482,1.164166 v 52.8658666 c 0,0 -0.21873,1.053745 0.91722,1.636183 1.13594,0.581377 3.3401,1.199444 3.3401,1.199444 0,0 0.96555,0.02858 0.9525,-0.709084 V -57.570493" />
    <path
       inkscape:connector-curvature="0"
       id="path1510"
       style="fill:#133447;fill-opacity:1;fill-rule:nonzero;stroke:none;stroke-width:0.03527778"
       d="M 129.2048,-37.365145 V -57.24382 c 0,0 -0.0374,-1.144764 -0.99095,-1.144764 -0.95391,0 -2.74955,0 -2.74955,0 0,0 -0.94051,-7.94e-4 -0.91617,1.144764 v 19.878675 h 4.65667" />
    <path
       inkscape:connector-curvature="0"
       id="path1512"
       style="fill:#133447;fill-opacity:1;fill-rule:nonzero;stroke:none;stroke-width:0.03527778"
       d="m 129.2048,-17.595126 v -18.94064 h -4.65667 v 18.237552 c 1.55363,0.222956 3.09845,0.519996 4.65667,0.703088" />
    <path
       inkscape:connector-curvature="0"
       id="path1514"
       style="fill:#133447;fill-opacity:1;fill-rule:nonzero;stroke:none;stroke-width:0.03527778"
       d="M 129.2048,-3.1435844 V -16.727647 c -1.55716,-0.19685 -3.10656,-0.453671 -4.65667,-0.703437 v 12.1948196 c 0,0 -0.19579,1.037167 0.81986,1.609725 1.01529,0.572558 2.9852,1.180042 2.9852,1.180042 0,0 0.86255,0.02893 0.85161,-0.697087" />
    <path
       inkscape:connector-curvature="0"
       id="path1516"
       style="fill:#040606;fill-opacity:1;fill-rule:nonzero;stroke:none;stroke-width:0.03527778"
       d="m 88.760238,-60.749726 c -0.166158,-0.07867 -0.29598,-0.197202 -0.361597,-0.374298 -0.224366,-0.605367 -0.307975,-14.893571 -0.307975,-14.893571 0,0 0.04269,-2.686403 0.833967,-1.761772 0.790928,0.923572 4.417483,12.711641 4.585406,13.901913 0.159102,1.128184 0.772583,2.549878 -0.366536,3.127728 h -4.383265" />
    <path
       inkscape:connector-curvature="0"
       id="path1518"
       style="fill:#133447;fill-opacity:1;fill-rule:nonzero;stroke:none;stroke-width:0.03527778"
       d="m 89.023411,-61.026303 c -0.147814,-0.07197 -0.26282,-0.180271 -0.321381,-0.342196 -0.199319,-0.553154 -0.274108,-13.616163 -0.274108,-13.616163 0,0 0.0381,-2.456391 0.741891,-1.611489 0.703087,0.845256 3.928534,11.622617 4.077406,12.709878 0.141817,1.031522 0.687211,2.331862 -0.325614,2.85997 h -3.898194" />
    <path
       inkscape:connector-curvature="0"
       id="path1520"
       style="fill:#040606;fill-opacity:1;fill-rule:nonzero;stroke:none;stroke-width:0.03527778"
       d="m 88.364775,-57.570493 c 0,0 0.04233,-1.164166 1.109133,-1.164166 1.0668,0 3.076222,0 3.076222,0 0,0 1.051984,0 1.025173,1.164166 v 52.8658666 c 0,0 0.218369,1.053745 -0.917575,1.636183 -1.136298,0.581377 -3.339748,1.199444 -3.339748,1.199444 0,0 -0.965905,0.02858 -0.953205,-0.709084 V -57.570493" />
    <path
       inkscape:connector-curvature="0"
       id="path1522"
       style="fill:#133447;fill-opacity:1;fill-rule:nonzero;stroke:none;stroke-width:0.03527778"
       d="M 88.671338,-37.365145 V -57.24382 c 0,0 0.03739,-1.144764 0.991306,-1.144764 0.953206,0 2.749197,0 2.749197,0 0,0 0.940859,-7.94e-4 0.916517,1.144764 v 19.878675 h -4.65702" />
    <path
       inkscape:connector-curvature="0"
       id="path1524"
       style="fill:#133447;fill-opacity:1;fill-rule:nonzero;stroke:none;stroke-width:0.03527778"
       d="m 88.671338,-17.595126 v -18.94064 h 4.65702 v 18.237552 c -1.553986,0.222956 -3.0988,0.519996 -4.65702,0.703088" />
    <path
       inkscape:connector-curvature="0"
       id="path1526"
       style="fill:#133447;fill-opacity:1;fill-rule:nonzero;stroke:none;stroke-width:0.03527778"
       d="M 88.671338,-3.1435844 V -16.727647 c 1.557514,-0.19685 3.106562,-0.453671 4.65702,-0.703437 v 12.1948196 c 0,0 0.195439,1.037167 -0.820208,1.609725 -1.015295,0.572558 -2.985206,1.180042 -2.985206,1.180042 0,0 -0.862894,0.02893 -0.851606,-0.697087" />
    <path
       inkscape:connector-curvature="0"
       id="path1528"
       style="fill:#133447;fill-opacity:1;fill-rule:nonzero;stroke:none;stroke-width:0.03527778"
       d="m 128.88554,-60.398359 c 0.14252,-0.07444 0.254,-0.186267 0.30973,-0.35419 0.19262,-0.573969 0.26459,-14.120988 0.26459,-14.120988 0,0 -0.0367,-2.547761 -0.71508,-1.671814 -0.6791,0.876653 -3.79095,12.053711 -3.93453,13.181895 -0.13653,1.069622 -0.66287,2.417938 0.31467,2.965097 h 3.76062" />
    <path
       inkscape:connector-curvature="0"
       id="path1530"
       style="fill:#133447;fill-opacity:1;fill-rule:nonzero;stroke:none;stroke-width:0.03527778"
       d="M 129.2048,-37.365145 V -57.24382 c 0,0 -0.0374,-1.144764 -0.99095,-1.144764 -0.95391,0 -2.74955,0 -2.74955,0 0,0 -0.94051,-7.94e-4 -0.91617,1.144764 v 19.878675 h 4.65667" />
    <path
       inkscape:connector-curvature="0"
       id="path1532"
       style="fill:#133447;fill-opacity:1;fill-rule:nonzero;stroke:none;stroke-width:0.03527778"
       d="m 129.2048,-17.595126 v -18.94064 h -4.65667 v 18.237552 c 1.55363,0.222956 3.09845,0.519996 4.65667,0.703088" />
    <path
       inkscape:connector-curvature="0"
       id="path1534"
       style="fill:#133447;fill-opacity:1;fill-rule:nonzero;stroke:none;stroke-width:0.03527778"
       d="M 129.2048,-3.1435844 V -16.727647 c -1.55716,-0.19685 -3.10656,-0.453671 -4.65667,-0.703437 v 12.1948196 c 0,0 -0.19579,1.037167 0.81986,1.609725 1.01529,0.572558 2.9852,1.180042 2.9852,1.180042 0,0 0.86255,0.02893 0.85161,-0.697087" />
    <path
       inkscape:connector-curvature="0"
       id="path1536"
       style="fill:#133447;fill-opacity:1;fill-rule:nonzero;stroke:none;stroke-width:0.03527778"
       d="m 89.023411,-61.026303 c -0.147814,-0.07197 -0.26282,-0.180271 -0.321381,-0.342196 -0.199319,-0.553154 -0.274108,-13.616163 -0.274108,-13.616163 0,0 0.0381,-2.456391 0.741891,-1.611489 0.703087,0.845256 3.928534,11.622617 4.077406,12.709878 0.141817,1.031522 0.687211,2.331862 -0.325614,2.85997 h -3.898194" />
    <path
       inkscape:connector-curvature="0"
       id="path1538"
       style="fill:#133447;fill-opacity:1;fill-rule:nonzero;stroke:none;stroke-width:0.03527778"
       d="M 88.671338,-37.365145 V -57.24382 c 0,0 0.03739,-1.144764 0.991306,-1.144764 0.953206,0 2.749197,0 2.749197,0 0,0 0.940859,-7.94e-4 0.916517,1.144764 v 19.878675 h -4.65702" />
    <path
       inkscape:connector-curvature="0"
       id="path1540"
       style="fill:#133447;fill-opacity:1;fill-rule:nonzero;stroke:none;stroke-width:0.03527778"
       d="m 88.671338,-17.595126 v -18.94064 h 4.65702 v 18.237552 c -1.553986,0.222956 -3.0988,0.519996 -4.65702,0.703088" />
    <path
       inkscape:connector-curvature="0"
       id="path1542"
       style="fill:#133447;fill-opacity:1;fill-rule:nonzero;stroke:none;stroke-width:0.03527778"
       d="M 88.671338,-3.1435844 V -16.727647 c 1.557514,-0.19685 3.106562,-0.453671 4.65702,-0.703437 v 12.1948196 c 0,0 0.195439,1.037167 -0.820208,1.609725 -1.015295,0.572558 -2.985206,1.180042 -2.985206,1.180042 0,0 -0.862894,0.02893 -0.851606,-0.697087" />
    <g
       transform="matrix(0.03527778,0,0,-0.03527778,-74.955104,225.98735)"
       id="g1544"
       style="fill:#e6e6e6">
      <g
         clip-path="url(#clipPath1550)"
         id="g1546"
         style="fill:#e6e6e6">
        <path
           inkscape:connector-curvature="0"
           id="path1552"
           style="fill:#e6e6e6;fill-opacity:1;fill-rule:nonzero;stroke:none"
           d="m 4700,8648.8 h 1005.45 v 93.3125 H 4700 Z" />
      </g>
    </g>
    <path
       inkscape:connector-curvature="0"
       id="path1554"
       style="fill:#efa435;fill-opacity:1;fill-rule:nonzero;stroke:none;stroke-width:0.03527778"
       d="m 90.461333,-78.936126 c 0,0 0.131586,-0.06879 0.389114,-0.186972 0.131939,-0.02999 0.416631,-0.103717 0.845256,-0.207081 -0.413103,0.125236 -0.823736,0.25647 -1.23437,0.394053 m 36.708647,-0.454378 c 0,0 -0.68192,-0.185914 -1.90324,-0.450497 0.34855,0.05997 0.70132,0.12312 1.05375,0.188031 0.28257,0.08537 0.56409,0.172508 0.84949,0.262466" />
    <path
       inkscape:connector-curvature="0"
       id="path1556"
       style="fill:#4e0e15;fill-opacity:1;fill-rule:nonzero;stroke:none;stroke-width:0.03527778"
       d="m 130.14495,-1.3391264 c 0,0 -0.76024,1.24988897 -2.60174,1.93004497 l -2.22496,-1.93004497 c 0,0 -0.4311,-0.212021 -0.19121,-0.691798 0,0 0.28681,-0.718609 1.10031,-0.431094 l 3.9176,1.122892" />
    <path
       inkscape:connector-curvature="0"
       id="path1558"
       style="fill:#e04820;fill-opacity:1;fill-rule:nonzero;stroke:none;stroke-width:0.03527778"
       d="m 129.99326,-1.2459934 c 0,0 -0.68475,1.12571197 -2.34421,1.73848697 l -2.00449,-1.73848697 c 0,0 -0.38735,-0.190854 -0.1718,-0.623006 0,0 0.25859,-0.646994 0.99131,-0.388409 l 3.52919,1.011415" />
    <path
       inkscape:connector-curvature="0"
       id="path1560"
       style="fill:#3f0c14;fill-opacity:1;fill-rule:nonzero;stroke:none;stroke-width:0.03527778"
       d="m 129.99326,-1.2459934 -1.94698,-0.558096 v 0 l 1.94698,0.558096" />
    <path
       inkscape:connector-curvature="0"
       id="path1562"
       style="fill:#c01f24;fill-opacity:1;fill-rule:nonzero;stroke:none;stroke-width:0.03527778"
       d="m 127.64905,0.49249357 v 0 l -1.20826,-1.048102 c 0.66286,-0.150283 1.24283,-0.50835097 1.54199,-1.10666397 0.67557,0.153106 1.29963,0.299156 1.29963,0.299156 l -1.27,-0.361243 c 0.012,-0.02611 0.0233,-0.05257 0.0339,-0.07973 l 1.94698,0.558096 c 0,0 -0.68475,1.12571197 -2.34421,1.73848697" />
    <path
       inkscape:connector-curvature="0"
       id="path1564"
       style="fill:#ffffff;fill-opacity:1;fill-rule:nonzero;stroke:none;stroke-width:0.03527778"
       d="m 127.98278,-1.6622724 c -0.6156,-0.1397 -1.27388,-0.285044 -1.54199,-0.331259 -0.10055,-0.01765 -0.18945,-0.02469 -0.26706,-0.02469 -0.3556,0 -0.48048,0.149225 -0.48048,0.149225 0.096,-0.268817 0.38946,-0.314677 0.57891,-0.314677 0.0984,0 0.16863,0.01236 0.16863,0.01236 l 1.57162,0.446971 c -0.009,0.02082 -0.0194,0.04163 -0.0296,0.06209" />
    <path
       inkscape:connector-curvature="0"
       id="path1566"
       style="fill:#ffffff;fill-opacity:1;fill-rule:nonzero;stroke:none;stroke-width:0.03527778"
       d="m 129.28241,-1.3631164 c 0,0 -0.62406,-0.14605 -1.29963,-0.299156 0.0102,-0.02045 0.0201,-0.04127 0.0296,-0.06209 l 1.27,0.361243" />
    <path
       inkscape:connector-curvature="0"
       id="path1568"
       style="fill:#4e0e15;fill-opacity:1;fill-rule:nonzero;stroke:none;stroke-width:0.03527778"
       d="m 87.520225,-1.2466994 c 0,0 0.759883,1.24989097 2.601736,1.92934097 L 92.34693,-1.2466994 c 0,0 0.430742,-0.212373 0.191559,-0.691444 0,0 -0.287514,-0.718963 -1.10102,-0.4318 l -3.917244,1.123244" />
    <path
       inkscape:connector-curvature="0"
       id="path1570"
       style="fill:#e04820;fill-opacity:1;fill-rule:nonzero;stroke:none;stroke-width:0.03527778"
       d="m 87.671919,-1.1535664 c 0,0 0.684742,1.12571197 2.343856,1.73813497 l 2.004483,-1.73813497 c 0,0 0.387703,-0.190852 0.172156,-0.623006 0,0 -0.258586,-0.6477 -0.991659,-0.389112 l -3.528836,1.012118" />
    <path
       inkscape:connector-curvature="0"
       id="path1572"
       style="fill:#c01f24;fill-opacity:1;fill-rule:nonzero;stroke:none;stroke-width:0.03527778"
       d="m 90.015775,0.58456857 c -1.659114,-0.612423 -2.343856,-1.73813497 -2.343856,-1.73813497 l 1.946628,-0.558093 c 0.01058,0.02716 0.02222,0.05362 0.03387,0.07973 l -1.27,0.361599 c 0,0 0.624064,-0.14605 1.299633,-0.299509 0.299156,0.59901697 0.879122,0.95637897 1.542344,1.10630997 l -1.208616,1.048102" />
    <path
       inkscape:connector-curvature="0"
       id="path1574"
       style="fill:#ffffff;fill-opacity:1;fill-rule:nonzero;stroke:none;stroke-width:0.03527778"
       d="m 89.682047,-1.5698434 c -0.01023,-0.02011 -0.02011,-0.04092 -0.02963,-0.06209 l 1.571977,-0.447323 c 0,0 0.06985,-0.01236 0.167923,-0.01236 0.189441,0 0.483305,0.04586 0.579261,0.315029 0,0 -0.124884,-0.149225 -0.480484,-0.149225 -0.07761,0 -0.166158,0.0071 -0.2667,0.02434 -0.268111,0.046572 -0.926394,0.191919 -1.542344,0.331619" />
    <path
       inkscape:connector-curvature="0"
       id="path1576"
       style="fill:#ffffff;fill-opacity:1;fill-rule:nonzero;stroke:none;stroke-width:0.03527778"
       d="m 88.382413,-1.2703344 1.27,-0.361599 c 0.0095,0.02117 0.0194,0.04198 0.02963,0.06209 -0.675569,0.153459 -1.299633,0.299509 -1.299633,0.299509" />
  </g>
</svg>
