<?xml version="1.0" encoding="UTF-8" standalone="no"?>
<!-- Generator: Adobe Illustrator 19.0.0, SVG Export Plug-In . SVG Version: 6.00 Build 0)  -->

<svg
   xmlns:dc="http://purl.org/dc/elements/1.1/"
   xmlns:cc="http://creativecommons.org/ns#"
   xmlns:rdf="http://www.w3.org/1999/02/22-rdf-syntax-ns#"
   xmlns:svg="http://www.w3.org/2000/svg"
   xmlns="http://www.w3.org/2000/svg"
   xmlns:sodipodi="http://sodipodi.sourceforge.net/DTD/sodipodi-0.dtd"
   xmlns:inkscape="http://www.inkscape.org/namespaces/inkscape"
   version="1.1"
   id="Capa_1"
   x="0px"
   y="0px"
   viewBox="0 0 253.37512 233.36667"
   xml:space="preserve"
   inkscape:version="0.91 r13725"
   sodipodi:docname="modernTriangle.svg"
   width="253.37512"
   height="233.36667"><metadata
     id="metadata8224"><rdf:RDF><cc:Work
         rdf:about=""><dc:format>image/svg+xml</dc:format><dc:type
           rdf:resource="http://purl.org/dc/dcmitype/StillImage" /><dc:title></dc:title></cc:Work></rdf:RDF></metadata><defs
     id="defs8222" /><sodipodi:namedview
     pagecolor="#ffffff"
     bordercolor="#666666"
     borderopacity="1"
     objecttolerance="10"
     gridtolerance="10"
     guidetolerance="10"
     inkscape:pageopacity="0"
     inkscape:pageshadow="2"
     inkscape:window-width="2400"
     inkscape:window-height="1532"
     id="namedview8220"
     showgrid="false"
     fit-margin-top="0"
     fit-margin-left="0"
     fit-margin-right="0"
     fit-margin-bottom="0"
     inkscape:zoom="2.4199219"
     inkscape:cx="126.68756"
     inkscape:cy="101.66667"
     inkscape:window-x="0"
     inkscape:window-y="68"
     inkscape:window-maximized="1"
     inkscape:current-layer="Capa_1" /><polygon
     style="fill:#85b3f8;fill-opacity:1"
     points="256,134.302 372.687,347.666 256,315.057 139.313,347.666 "
     id="polygon8168"
     transform="translate(-129.31244,-124.3)" /><polygon
     style="fill:#627ffc;fill-opacity:1"
     points="256,315.057 139.313,347.666 256,134.302 "
     id="polygon8170"
     transform="translate(-129.31244,-124.3)" /><path
     d="m 184.06656,127.648 c -2.559,0 -5.119,-0.976 -7.071,-2.929 -3.905,-3.905 -3.905,-10.237 0,-14.143 l 0.964,-0.964 c 3.905,-3.905 10.237,-3.905 14.143,0 3.905,3.905 3.905,10.237 0,14.143 l -0.964,0.964 c -1.953,1.953 -4.513,2.929 -7.072,2.929 z"
     id="path8186"
     inkscape:connector-curvature="0" /><path
     d="m 252.14856,218.568 -40.903,-74.793 c -2.65,-4.847 -8.726,-6.625 -13.572,-3.976 -4.845,2.649 -6.625,8.727 -3.975,13.571 l 29.52,53.979 -86.531,-24.18 0,-86.469 c 0,-5.523 -4.477,-10 -10,-10 -5.523,0 -10,4.477 -10,10 l 0,86.469 -86.530996,24.181 96.530996,-176.508 30.553,55.867 c 2.65,4.846 8.727,6.626 13.572,3.975 4.845,-2.65 6.625,-8.726 3.975,-13.572 l -39.327,-71.91 c -1.754,-3.207 -5.118,-5.202 -8.773,-5.202 -3.655,0 -7.02,1.995 -8.773,5.202 L 1.2265639,218.568 c -1.93000004,3.528 -1.55800004,7.87 0.944,11.019 2.501,3.149 6.647,4.493 10.5210001,3.41 l 113.995996,-31.857 113.996,31.857 c 0.891,0.249 1.795,0.37 2.691,0.369 3.001,0 5.903,-1.354 7.83,-3.779 2.502,-3.148 2.874,-7.49 0.944,-11.019 z"
     id="path8188"
     inkscape:connector-curvature="0" /><g
     id="g8190"
     transform="translate(-129.31244,-124.3)" /><g
     id="g8192"
     transform="translate(-129.31244,-124.3)" /><g
     id="g8194"
     transform="translate(-129.31244,-124.3)" /><g
     id="g8196"
     transform="translate(-129.31244,-124.3)" /><g
     id="g8198"
     transform="translate(-129.31244,-124.3)" /><g
     id="g8200"
     transform="translate(-129.31244,-124.3)" /><g
     id="g8202"
     transform="translate(-129.31244,-124.3)" /><g
     id="g8204"
     transform="translate(-129.31244,-124.3)" /><g
     id="g8206"
     transform="translate(-129.31244,-124.3)" /><g
     id="g8208"
     transform="translate(-129.31244,-124.3)" /><g
     id="g8210"
     transform="translate(-129.31244,-124.3)" /><g
     id="g8212"
     transform="translate(-129.31244,-124.3)" /><g
     id="g8214"
     transform="translate(-129.31244,-124.3)" /><g
     id="g8216"
     transform="translate(-129.31244,-124.3)" /><g
     id="g8218"
     transform="translate(-129.31244,-124.3)" /></svg>