<?xml version="1.0" encoding="UTF-8" standalone="no"?>
<!-- Generator: Adobe Illustrator 19.0.0, SVG Export Plug-In . SVG Version: 6.00 Build 0)  -->

<svg
   xmlns:dc="http://purl.org/dc/elements/1.1/"
   xmlns:cc="http://creativecommons.org/ns#"
   xmlns:rdf="http://www.w3.org/1999/02/22-rdf-syntax-ns#"
   xmlns:svg="http://www.w3.org/2000/svg"
   xmlns="http://www.w3.org/2000/svg"
   xmlns:sodipodi="http://sodipodi.sourceforge.net/DTD/sodipodi-0.dtd"
   xmlns:inkscape="http://www.inkscape.org/namespaces/inkscape"
   version="1.1"
   id="Capa_1"
   x="0px"
   y="0px"
   viewBox="0 0 512 512"
   style="enable-background:new 0 0 512 512;"
   xml:space="preserve"
   inkscape:version="0.91 r13725"
   sodipodi:docname="roundedPin.svg"><metadata
     id="metadata9877"><rdf:RDF><cc:Work
         rdf:about=""><dc:format>image/svg+xml</dc:format><dc:type
           rdf:resource="http://purl.org/dc/dcmitype/StillImage" /><dc:title></dc:title></cc:Work></rdf:RDF></metadata><defs
     id="defs9875" /><sodipodi:namedview
     pagecolor="#ffffff"
     bordercolor="#666666"
     borderopacity="1"
     objecttolerance="10"
     gridtolerance="10"
     guidetolerance="10"
     inkscape:pageopacity="0"
     inkscape:pageshadow="2"
     inkscape:window-width="2400"
     inkscape:window-height="1532"
     id="namedview9873"
     showgrid="false"
     inkscape:zoom="0.65186406"
     inkscape:cx="134.62837"
     inkscape:cy="127.62834"
     inkscape:window-x="0"
     inkscape:window-y="68"
     inkscape:window-maximized="1"
     inkscape:current-layer="Capa_1" /><path
     style="fill:#627ffc;fill-opacity:1"
     d="M 428.165,182.165 C 428.165,87.081 351.084,10 256,10 160.916,10 83.835,87.081 83.835,182.165 c 0,41.218 14.492,79.047 38.649,108.687 l -0.012,0 L 256,462 388.891,291.748 l -0.1,0 c 24.595,-29.771 39.374,-67.951 39.374,-109.583 z"
     id="path9829" /><path
     d="M133.74,70.949c-2.559,0-5.119-0.976-7.071-2.929c-3.905-3.905-3.905-10.237,0-14.143  c3.878-3.933,10.236-4.004,14.168-0.126c3.933,3.877,4.004,10.182,0.127,14.115l-0.153,0.154  C138.859,69.973,136.299,70.949,133.74,70.949z"
     id="path9833" /><path
     d="m 219.66797,432 c 0.079,0 0.23437,-0.0117 0.23437,-0.0117 m 28.21289,36.16211 c 1.895,2.428 4.80282,3.84861 7.88282,3.84961 l 0.002,0 c 3.08,0 5.98781,-1.41966 7.88281,-3.84766 0,0 18.8124,-24.10162 28.2187,-36.15236 5.20374,-6.66669 10.40759,-13.33331 15.61133,-20 29.68703,-38.03306 89.06055,-114.09961 89.06055,-114.09961 0.206,-0.264 0.39626,-0.5345 0.57226,-0.8125 26.331,-32.357 40.81836,-73.11683 40.81836,-114.92383 C 438.16506,81.718066 356.446,0 256,0 c -33.46,0 -66.17723,9.15275 -94.61523,26.46875 -4.717,2.872 -6.21285,9.025188 -3.33985,13.742188 2.871,4.716999 9.02519,6.211843 13.74219,3.339843 C 197.08911,28.143781 226.21,20 256,20 c 89.418,0 162.16406,72.746065 162.16406,162.16406 0,37.614 -13.16803,74.27085 -37.08203,103.21485 -0.326,0.394 -0.61705,0.80828 -0.87305,1.23828 l -124.20703,159.1289 -125.375,-160.69921 c -0.124,-0.174 -0.25362,-0.34668 -0.39062,-0.51368 -23.473,-28.8 -36.400393,-65.15614 -36.400392,-102.36914 0,-29.093 7.789342,-57.62381 22.527342,-82.50781 2.814,-4.752 1.24419,-10.885219 -3.50781,-13.699219 -4.752,-2.814 -10.88617,-1.243234 -13.701173,3.509766 -16.563,27.968003 -25.318359,60.022223 -25.318359,92.699223 0,41.656 14.419236,82.3542 40.615232,114.6582 0.045,0.06 0.0917,0.12069 0.13867,0.17969 44.50822,57.04902 89.01657,114.09795 133.52539,171.1465 z"
     id="path10640"
     inkscape:connector-curvature="0"
     sodipodi:nodetypes="ccccscaaccsscccsscccccscscsccc" /><g
     id="g9843" /><g
     id="g9845" /><g
     id="g9847" /><g
     id="g9849" /><g
     id="g9851" /><g
     id="g9853" /><g
     id="g9855" /><g
     id="g9857" /><g
     id="g9859" /><g
     id="g9861" /><g
     id="g9863" /><g
     id="g9865" /><g
     id="g9867" /><g
     id="g9869" /><g
     id="g9871" /></svg>